<svg xmlns="http://www.w3.org/2000/svg" viewBox="0 0 63.27 9.52"><defs><style>.cls-1{fill:#fff;}</style></defs><g id="Layer_2" data-name="Layer 2"><g id="Layer_1-2" data-name="Layer 1"><path class="cls-1" d="M0,4.76C0,1.9,2.2,0,5.49,0S11,1.66,11,4.17H8.71C8.61,2.68,7.32,1.9,5.49,1.9s-3.25,1-3.25,2.86,1.3,2.86,3.25,2.86,3.13-.79,3.22-2.28H11c0,2.51-2.19,4.18-5.48,4.18S0,7.62,0,4.76Z"/><path class="cls-1" d="M13.26.21H15.5v7.2h6v1.9H13.26Z"/><path class="cls-1" d="M23.59.21h2.24v9.1H23.59Z"/><path class="cls-1" d="M28.67.21h8.86v1.9H30.9V3.8h6.52V5.58H30.9V7.41h6.63v1.9H28.67Z"/><path class="cls-1" d="M40.23.21h1.88L48.49,6V.21h2.24v9.1H48.84L42.47,3.52V9.31H40.23Z"/><path class="cls-1" d="M56.8,2.11H52.57V.21h10.7v1.9H59v7.2H56.8Z"/></g></g></svg>